<?xml version="1.0" encoding="UTF-8"?>
<!DOCTYPE svg PUBLIC "-//W3C//DTD SVG 1.1//EN" "http://www.w3.org/Graphics/SVG/1.1/DTD/svg11.dtd">
<!-- Creator: CorelDRAW -->
<svg xmlns="http://www.w3.org/2000/svg" xml:space="preserve" width="6.82666in" height="6.82666in" style="shape-rendering:geometricPrecision; text-rendering:geometricPrecision; image-rendering:optimizeQuality; fill-rule:evenodd; clip-rule:evenodd"
viewBox="0 0 6.82666 6.82666"
 xmlns:xlink="http://www.w3.org/1999/xlink">
 <defs>
  <style type="text/css">
   <![CDATA[
    .fil3 {fill:none}
    .fil2 {fill:#ECEFF1}
    .fil0 {fill:#212121;fill-rule:nonzero}
    .fil1 {fill:#5D4037;fill-rule:nonzero}
   ]]>
  </style>
 </defs>
 <g id="Layer_x0020_1">
  <metadata id="CorelCorpID_0Corel-Layer"/>
  <g id="_249318672">
   <path id="_249319200" class="fil0" d="M1.22444 1.10821c0.451197,-0.010315 0.973209,0.109657 1.53381,0.238512 1.41682,0.325646 2.58605,-0.289976 2.58605,0.056815 0,0.15028 -0.126996,0.124941 0.0295236,0.284583 0.387768,0.3955 -0.122409,0.361244 0.114524,0.567445 0.150949,0.131346 0.160583,0.0779094 0.196909,0.264642 0.0343346,0.176508 -0.237283,0.222071 -0.0375039,0.344406 0.184055,0.112697 0.0549764,0.249197 -0.00237008,0.241374 -1.22178,0.538224 -2.72563,0.154429 -3.98133,-0.113657l-0.43961 -1.88412z"/>
   <path id="_249318720" class="fil1" d="M1.2938 0.936244c-0.0131142,-0.0572992 -0.0702047,-0.0931142 -0.127504,-0.08 -0.0572992,0.0131142 -0.0931142,0.0702047 -0.08,0.127504l1.13819 4.90667c0.0131142,0.0572992 0.0702047,0.0931142 0.127504,0.08 0.0572992,-0.0131142 0.0931142,-0.0702047 0.08,-0.127504l-1.13819 -4.90667z"/>
   <path id="_249318456" class="fil2" d="M3.96192 2.45816c0.603508,-1.12379 -1.66344,-0.956268 -0.901299,0.0666024 0.195441,0.148579 0.179295,0.461898 0.179295,0.461898l0.0876496 -0.00647638 -0.00941339 -0.127343c-0.00177953,-0.0241299 0.0163386,-0.0451378 0.0404685,-0.0469213 0.0241299,-0.00178346 0.0451378,0.0163346 0.0469213,0.0404646l0.00940945 0.127343 0.0875433 -0.0064685 -0.00940945 -0.127343c-0.00178346,-0.0241299 0.0163346,-0.0451417 0.0404646,-0.0469252 0.0241339,-0.00177953 0.0451417,0.0163386 0.0469252,0.0404685l0.00940945 0.127339 0.0875433 -0.0064685 -0.00940945 -0.127339c-0.00178346,-0.0241339 0.0163346,-0.0451417 0.0404646,-0.0469252 0.0241299,-0.00178346 0.0451417,0.0163346 0.0469252,0.0404646l0.00940945 0.127343 0.0876457 -0.00647638c0,0 -0.0620236,-0.307547 0.109457,-0.483236zm-0.599087 -0.279091c0.00597244,0.0808071 -0.0546969,0.151157 -0.1355,0.15713 -0.0808031,0.0059685 -0.151157,-0.0546969 -0.15713,-0.135508 -0.00597244,-0.0808031 0.0547047,-0.151154 0.135504,-0.157122 0.0808031,-0.00597244 0.151154,0.0546969 0.157126,0.1355zm0.40648 0.117079c-0.080811,0.00597244 -0.151161,-0.0546969 -0.15713,-0.135508 -0.00597244,-0.0807992 0.0546969,-0.15115 0.135504,-0.157122 0.0807992,-0.00597244 0.151154,0.0546969 0.157126,0.1355 0.0059685,0.0808071 -0.0547047,0.151161 -0.1355,0.15713z"/>
  </g>
 </g>
 <rect class="fil3" width="6.82666" height="6.82666"/>
</svg>
